<svg width="400" height="78" viewBox="0 0 400 78" fill="none" xmlns="http://www.w3.org/2000/svg">
<path d="M0 34.0098C0 29.3542 0.947354 25.2942 2.84206 21.8295C4.73677 18.3108 7.3623 15.6041 10.7186 13.7094C14.075 11.7605 17.9185 10.7861 22.2493 10.7861C27.8251 10.7861 32.4266 12.1936 36.0536 15.0086C39.7347 17.7695 42.1979 21.6671 43.443 26.7017H31.1815C30.5319 24.7528 29.4221 23.237 27.8522 22.1544C26.3364 21.0175 24.4417 20.4491 22.1681 20.4491C18.92 20.4491 16.3486 21.6401 14.4539 24.022C12.5592 26.3498 11.6119 29.6791 11.6119 34.0098C11.6119 38.2864 12.5592 41.6157 14.4539 43.9976C16.3486 46.3254 18.92 47.4893 22.1681 47.4893C26.7695 47.4893 29.774 45.4322 31.1815 41.318H43.443C42.1979 46.1901 39.7347 50.0607 36.0536 52.9298C32.3724 55.799 27.771 57.2335 22.2493 57.2335C17.9185 57.2335 14.075 56.2862 10.7186 54.3915C7.3623 52.4426 4.73677 49.7359 2.84206 46.2713C0.947354 42.7525 0 38.6654 0 34.0098Z" fill="white"/>
<path d="M63.1395 18.5003C64.6011 16.1184 66.4958 14.2507 68.8236 12.8974C71.2055 11.544 73.9122 10.8673 76.9438 10.8673V22.804H73.9393C70.3664 22.804 67.6597 23.6431 65.8191 25.3212C64.0327 26.9994 63.1395 29.9227 63.1395 34.091V56.5027H54.7712C53.1144 56.5027 51.7712 55.1596 51.7712 53.5027V11.5169H63.1395V18.5003Z" fill="white"/>
<path d="M104.576 57.2335C100.246 57.2335 96.348 56.2862 92.8834 54.3915C89.4188 52.4426 86.685 49.7088 84.682 46.1901C82.7332 42.6713 81.7588 38.6113 81.7588 34.0098C81.7588 29.4084 82.7603 25.3483 84.7632 21.8295C86.8204 18.3108 89.6083 15.6041 93.127 13.7094C96.6458 11.7605 100.571 10.7861 104.901 10.7861C109.232 10.7861 113.157 11.7605 116.676 13.7094C120.194 15.6041 122.955 18.3108 124.958 21.8295C127.015 25.3483 128.044 29.4084 128.044 34.0098C128.044 38.6113 126.988 42.6713 124.877 46.1901C122.82 49.7088 120.005 52.4426 116.432 54.3915C112.913 56.2862 108.961 57.2335 104.576 57.2335ZM104.576 47.3269C106.634 47.3269 108.555 46.8397 110.342 45.8653C112.182 44.8367 113.644 43.321 114.727 41.318C115.809 39.315 116.351 36.8789 116.351 34.0098C116.351 29.7332 115.214 26.458 112.94 24.1844C110.721 21.8566 107.987 20.6927 104.739 20.6927C101.491 20.6927 98.757 21.8566 96.5375 24.1844C94.3721 26.458 93.2894 29.7332 93.2894 34.0098C93.2894 38.2864 94.3451 41.5886 96.4563 43.9164C98.6217 46.1901 101.328 47.3269 104.576 47.3269Z" fill="white"/>
<path d="M133.46 33.9286C133.46 29.4354 134.38 25.4566 136.22 21.9919C138.115 18.4732 140.659 15.7394 143.853 13.7906C147.047 11.8417 150.566 10.8673 154.41 10.8673C157.604 10.8673 160.419 11.4899 162.855 12.7349C165.345 13.9259 167.348 15.4687 168.864 17.3634V11.5169H180.313V77.94H171.864C170.207 77.94 168.864 76.5968 168.864 74.94V50.3314C167.348 52.2802 165.318 53.9043 162.773 55.2035C160.229 56.5027 157.36 57.1523 154.166 57.1523C150.377 57.1523 146.885 56.1779 143.691 54.2291C140.551 52.2261 138.061 49.4652 136.22 45.9465C134.38 42.4277 133.46 38.4218 133.46 33.9286ZM168.864 34.0098C168.864 31.249 168.295 28.867 167.158 26.8641C166.021 24.8611 164.533 23.3453 162.692 22.3168C160.906 21.2882 158.984 20.7739 156.927 20.7739C154.924 20.7739 153.002 21.2882 151.162 22.3168C149.375 23.3453 147.913 24.8611 146.777 26.8641C145.64 28.8129 145.071 31.1678 145.071 33.9286C145.071 36.6895 145.64 39.0985 146.777 41.1556C147.913 43.1585 149.375 44.6743 151.162 45.7029C153.002 46.7314 154.924 47.2457 156.927 47.2457C158.984 47.2457 160.906 46.7314 162.692 45.7029C164.533 44.6743 166.021 43.1585 167.158 41.1556C168.295 39.1526 168.864 36.7707 168.864 34.0098Z" fill="white"/>
<path d="M233.885 11.5169V56.5027H225.435C223.778 56.5027 222.435 55.1596 222.435 53.5027V50.8186C220.974 52.7674 219.052 54.3103 216.67 55.4471C214.342 56.5298 211.798 57.0711 209.037 57.0711C205.518 57.0711 202.405 56.3403 199.699 54.8787C196.992 53.3629 194.854 51.1705 193.284 48.3013C191.768 45.3781 191.01 41.9135 191.01 37.9075V11.5169H202.378V36.2835C202.378 39.8563 203.272 42.6172 205.058 44.566C206.844 46.4608 209.28 47.4081 212.366 47.4081C215.506 47.4081 217.969 46.4608 219.755 44.566C221.542 42.6172 222.435 39.8563 222.435 36.2835V11.5169H233.885Z" fill="white"/>
<path d="M286.92 33.0354C286.92 34.6594 286.812 36.1211 286.595 37.4203H253.709C253.979 40.6684 255.116 43.2127 257.119 45.0533C259.122 46.8938 261.585 47.8141 264.508 47.8141C268.731 47.8141 271.735 46.0006 273.522 42.3736H285.783C284.484 46.7044 281.994 50.2772 278.313 53.0922C274.632 55.8531 270.111 57.2335 264.752 57.2335C260.421 57.2335 256.524 56.2862 253.059 54.3915C249.649 52.4426 246.969 49.7088 245.02 46.1901C243.125 42.6713 242.178 38.6113 242.178 34.0098C242.178 29.3542 243.125 25.2671 245.02 21.7483C246.915 18.2296 249.567 15.5229 252.978 13.6282C256.388 11.7335 260.313 10.7861 264.752 10.7861C269.029 10.7861 272.845 11.7064 276.202 13.547C279.612 15.3875 282.238 18.0131 284.078 21.4235C285.973 24.7799 286.92 28.6505 286.92 33.0354ZM275.146 29.7873C275.092 26.8641 274.036 24.5363 271.979 22.804C269.922 21.0175 267.405 20.1243 264.427 20.1243C261.612 20.1243 259.23 20.9905 257.281 22.7228C255.387 24.4009 254.223 26.7558 253.79 29.7873H275.146Z" fill="white"/>
<path d="M308.454 20.8551V42.6172C308.454 44.133 308.806 45.2427 309.509 45.9465C310.267 46.5961 311.512 46.9209 313.245 46.9209H318.523V56.5027H311.377C301.795 56.5027 297.004 51.8471 297.004 42.536V20.8551H291.645V11.5169H297.004V0.392273H308.454V11.5169H318.523V20.8551H308.454Z" fill="white"/>
<path d="M339.935 20.8551V42.6172C339.935 44.133 340.287 45.2427 340.991 45.9465C341.749 46.5961 342.994 46.9209 344.726 46.9209H350.004V56.5027H342.859C333.277 56.5027 328.486 51.8471 328.486 42.536V20.8551H323.127V11.5169H328.486V0.392273H339.935V11.5169H350.004V20.8551H339.935Z" fill="white"/>
<path d="M400 33.0354C400 34.6594 399.892 36.1211 399.675 37.4203H366.788C367.059 40.6684 368.196 43.2127 370.199 45.0533C372.202 46.8938 374.665 47.8141 377.588 47.8141C381.811 47.8141 384.815 46.0006 386.602 42.3736H398.863C397.564 46.7044 395.074 50.2772 391.393 53.0922C387.711 55.8531 383.191 57.2335 377.832 57.2335C373.501 57.2335 369.603 56.2862 366.139 54.3915C362.728 52.4426 360.049 49.7088 358.1 46.1901C356.205 42.6713 355.258 38.6113 355.258 34.0098C355.258 29.3542 356.205 25.2671 358.1 21.7483C359.995 18.2296 362.647 15.5229 366.058 13.6282C369.468 11.7335 373.393 10.7861 377.832 10.7861C382.109 10.7861 385.925 11.7064 389.281 13.547C392.692 15.3875 395.317 18.0131 397.158 21.4235C399.053 24.7799 400 28.6505 400 33.0354ZM388.226 29.7873C388.172 26.8641 387.116 24.5363 385.059 22.804C383.002 21.0175 380.484 20.1243 377.507 20.1243C374.692 20.1243 372.31 20.9905 370.361 22.7228C368.467 24.4009 367.303 26.7558 366.87 29.7873H388.226Z" fill="white"/>
</svg>
