<svg width="300" height="86" viewBox="0 0 300 86" fill="none" xmlns="http://www.w3.org/2000/svg">
<path d="M60.7905 26.9911C60.7905 31.4499 59.7135 35.6299 57.5637 39.5313C55.4936 43.4326 52.1917 46.5776 47.6534 48.9662C43.1946 51.3548 37.5406 52.5491 30.6933 52.5491H16.7203V84.5562H0V1.1943H30.6933C37.1425 1.1943 42.6355 2.30899 47.1739 4.53835C51.7122 6.7677 55.0979 9.83306 57.3272 13.7344C59.6362 17.6358 60.7905 22.0547 60.7905 26.9911ZM29.9773 39.0536C34.5953 39.0536 38.0179 38.0185 40.2473 35.9484C42.4767 33.7986 43.5907 30.8129 43.5907 26.9911C43.5907 18.8699 39.054 14.8093 29.9773 14.8093H16.7203V39.0536H29.9773Z" fill="white"/>
<path d="M195.214 85.3922C189.402 85.3922 184.147 84.397 179.449 82.4065C174.831 80.416 171.17 77.5497 168.463 73.8075C165.756 70.0654 164.36 65.6466 164.281 60.5509H182.197C182.435 63.9745 183.63 66.6816 185.78 68.6721C188.009 70.6626 191.036 71.6578 194.857 71.6578C198.759 71.6578 201.822 70.7422 204.052 68.9109C206.281 67.0001 207.395 64.5319 207.395 61.5063C207.395 59.0381 206.64 57.0078 205.127 55.4154C203.615 53.823 201.702 52.5889 199.393 51.7131C197.164 50.7577 194.06 49.7226 190.079 48.6079C184.665 47.0155 180.245 45.4629 176.822 43.9502C173.478 42.3578 170.572 40.009 168.104 36.9038C165.715 33.719 164.521 29.4992 164.521 24.2443C164.521 19.3078 165.755 15.0083 168.224 11.3458C170.692 7.68332 174.155 4.89663 178.613 2.98575C183.072 0.995255 188.169 0 193.902 0C202.501 0 209.467 2.10992 214.801 6.32977C220.215 10.47 223.202 16.2823 223.759 23.7665H205.367C205.208 20.9002 203.973 18.5514 201.664 16.7202C199.435 14.8093 196.448 13.8539 192.706 13.8539C189.442 13.8539 186.814 14.6899 184.824 16.3619C182.913 18.0339 181.957 20.4623 181.957 23.6471C181.957 25.8765 182.675 27.7475 184.108 29.2603C185.621 30.6935 187.453 31.8878 189.603 32.8432C191.832 33.719 194.936 34.7541 198.917 35.9484C204.331 37.5408 208.75 39.1332 212.174 40.7256C215.598 42.318 218.544 44.7066 221.012 47.8913C223.48 51.0761 224.715 55.2562 224.715 60.4315C224.715 64.8902 223.561 69.0304 221.252 72.8521C218.943 76.6739 215.557 79.7392 211.098 82.0482C206.64 84.2776 201.345 85.3922 195.214 85.3922Z" fill="white"/>
<path d="M300 26.9911C300 31.4499 298.923 35.6299 296.773 39.5313C294.703 43.4326 291.401 46.5776 286.863 48.9662C282.404 51.3548 276.75 52.5491 269.903 52.5491H255.93V84.5562H239.21V1.1943H269.903C276.352 1.1943 281.845 2.30899 286.383 4.53835C290.922 6.7677 294.307 9.83306 296.537 13.7344C298.846 17.6358 300 22.0547 300 26.9911ZM269.187 39.0536C273.805 39.0536 277.227 38.0185 279.457 35.9484C281.686 33.7986 282.8 30.8129 282.8 26.9911C282.8 18.8699 278.263 14.8093 269.187 14.8093H255.93V39.0536H269.187Z" fill="white"/>
<path d="M111.298 0C87.7127 0 68.6015 19.1108 68.6015 42.6961C68.6015 66.2815 87.7127 85.3923 111.298 85.3923C134.883 85.3923 153.995 66.2815 153.995 42.6961C154.023 19.1108 134.883 0 111.298 0ZM133.468 61.7203C129.801 68.0136 122.065 70.2942 116.349 69.6302C108.15 68.7064 102.954 61.6048 97.6134 54.3589C94.9575 50.7504 93.4279 47.7481 92.1577 45.2077C88.8378 38.5969 86.6429 34.0357 87.2203 28.3198C87.4224 26.2124 87.8288 22.2574 91.0043 19.1974C93.6891 16.5992 97.9882 14.9538 101.77 15.993C104.599 16.7725 105.032 18.5046 110.141 24.0184C112.422 26.6743 114.618 28.7817 116.436 30.3694C118.255 31.986 119.671 33.083 120.45 33.6893C121.894 34.8151 122.585 35.3636 123.538 35.9987C126.107 37.7308 127.579 38.1927 129.629 40.0691C129.629 40.0691 130.351 40.7042 131.044 41.5703C134.566 46.0449 137.625 54.6476 133.468 61.7203Z" fill="white"/>
</svg>
